HIERARCHY
ROOT Hips
{
  OFFSET -0.186263 101.603 265.052
  CHANNELS 6 Xposition Yposition Zposition Zrotation Xrotation Yrotation
  JOINT RightUpLeg
  {
    OFFSET -8.9458 -8.66707 0.101652
    CHANNELS 3 Zrotation Xrotation Yrotation
    JOINT RightLeg
    {
      OFFSET 0 -44.4227 1.3727
      CHANNELS 3 Zrotation Xrotation Yrotation
      JOINT RightFoot
      {
        OFFSET 0.253549 -42.0924 -1.46059
        CHANNELS 3 Zrotation Xrotation Yrotation
        JOINT RightToes
        {
          OFFSET 0.04 -4.41509 8.4991
          CHANNELS 3 Zrotation Xrotation Yrotation
          End Site
          {
            OFFSET -0.08 -0.137448 9.77979
          }
        }
      }
    }
  }
  JOINT Spine
  {
    OFFSET 0 11.8905 0
    CHANNELS 3 Zrotation Xrotation Yrotation
    JOINT Spine1
    {
      OFFSET 0 25.6574 0.127663
      CHANNELS 3 Zrotation Xrotation Yrotation
      JOINT HEad
      {
        OFFSET 0 8.73416 0.011341
        CHANNELS 3 Zrotation Xrotation Yrotation
        End Site
        {
          OFFSET -0.29 12.7742 2.51395
        }
      }
      JOINT LeftShoulder1
      {
        OFFSET 8.99 -0.362252 -0.22
        CHANNELS 3 Zrotation Xrotation Yrotation
        JOINT LeftArm
        {
          OFFSET 10.2827 -0.00338 0.322123
          CHANNELS 3 Zrotation Xrotation Yrotation
          JOINT LeftForeArm
          {
            OFFSET 32.7669 0.099144 -1.42434
            CHANNELS 3 Zrotation Xrotation Yrotation
            JOINT LeftHand
            {
              OFFSET 27.5643 0.085362 1.02216
              CHANNELS 3 Zrotation Xrotation Yrotation
              End Site
              {
                OFFSET 16.7443 -0.6 1.50291
              }
            }
          }
        }
      }
      JOINT RightShoulder
      {
        OFFSET -8.99 -0.362252 -0.22
        CHANNELS 3 Zrotation Xrotation Yrotation
        JOINT RightArm
        {
          OFFSET -10.2827 -0.00338 0.322123
          CHANNELS 3 Zrotation Xrotation Yrotation
          JOINT RightForeArm
          {
            OFFSET -32.8971 0.099144 -1.42434
            CHANNELS 3 Zrotation Xrotation Yrotation
            JOINT RightHand
            {
              OFFSET -27.4921 0.085362 1.02216
              CHANNELS 3 Zrotation Xrotation Yrotation
              End Site
              {
                OFFSET -16.6312 -0.6 1.50291
              }
            }
          }
        }
      }
    }
  }
  JOINT LeftUpLeg
  {
    OFFSET 8.9458 -8.66707 0.101652
    CHANNELS 3 Zrotation Xrotation Yrotation
    JOINT LeftLeg
    {
      OFFSET 0 -44.4227 1.3727
      CHANNELS 3 Zrotation Xrotation Yrotation
      JOINT LeftFoot
      {
        OFFSET -0.253549 -42.0924 -1.46059
        CHANNELS 3 Zrotation Xrotation Yrotation
        JOINT LeftToes
        {
          OFFSET -0.04 -4.41509 8.4991
          CHANNELS 3 Zrotation Xrotation Yrotation
          End Site
          {
            OFFSET 0.08 -0.047448 9.77979
          }
        }
      }
    }
  }
}
MOTION
Frames:	21
Frame Time:	0.0166667
-17.3393 101.586 71.3108 -3.34981 6.40356 -170.906 4.25344 -14.0996 -0.37772 -8.0776 10.0609 -6.69052 -0.677039 3.66465 -0.1229 15.6206 7.92494 -6.04242 -0.526934 5.33018 -0.192898 -1.43047 2.62698 -0.0242262 0.665695 4.2339 -5.39346 2.48481e-017 -1.98785e-016 3.18055e-015 -88.0495 -21.0595 -16.3274 -19.1105 16.313 -23.6902 0.368473 9.90896 -0.00117926 13.5072 -2.81354 -17.1688 53.9431 -63.5443 -12.6878 7.31103 11.9619 4.89975 -0.369625 9.91382 0.00119886 -7.17014 17.0238 6.39077 13.3187 25.2509 -10.529 0.371355 1.22765 0.0121045 5.73782 -11.8502 -13.2374 
-17.1101 101.636 68.6809 -2.69271 6.87788 -170.837 5.47499 -13.178 -0.0760356 -8.28547 11.3828 -6.7802 -0.480663 5.84313 -0.126419 14.267 8.55135 -5.07939 -0.318476 5.3882 -0.0848174 -0.738018 2.30112 -0.0451692 0.516609 4.77261 -5.66593 2.48481e-017 1.98785e-016 -0 -87.8889 -21.1796 -15.5852 -19.2344 16.1795 -22.8619 0.368473 9.90896 -0.00117926 13.867 -2.93912 -17.5429 52.3443 -63.4349 -13.4833 7.48992 11.9769 4.62917 -0.369625 9.91382 0.00119886 -5.30535 17.0745 7.29421 13.8848 27.2432 -11.3021 -1.74671 4.3243 0.16724 9.72856 -12.2994 -19.3949 
-16.8482 101.719 66.129 -1.88579 7.47059 -170.711 6.85823 -12.1712 0.969682 -8.28589 12.8889 -7.64396 -0.352173 7.12231 -0.130944 13.3962 9.76781 -4.34843 -0.0953205 5.39507 0.0549048 0.170923 2.37624 -0.0646233 0.284208 4.94254 -5.95227 -4.96962e-017 0 -1.59028e-015 -87.9732 -21.2961 -15.0553 -19.1541 15.9926 -21.8792 0.368473 9.90896 -0.00117926 14.1894 -3.08899 -18.0566 51.8688 -63.0697 -13.1825 7.78738 12.0071 4.40089 -0.369625 9.91382 0.00119886 -3.0797 16.648 8.39482 14.6055 29.7248 -13.1606 -3.72179 8.37164 0.384208 13.6858 -12.0699 -25.5212 
-16.5928 101.64 63.6713 -1.0606 8.09881 -170.653 8.24484 -11.3853 2.2104 -7.85091 15.2916 -8.55786 -0.802459 6.31424 -0.103663 12.2555 8.31209 -4.02251 -0.127806 5.35829 0.242491 1.29079 2.79505 -0.0978998 -0.0117347 4.66017 -6.05956 1.14922e-016 0 -0 -88.487 -21.5903 -14.735 -18.7195 15.7618 -20.8653 0.368473 9.90896 -0.00117926 14.0828 -3.20361 -18.6642 53.2231 -62.5982 -11.5734 8.04001 12.0335 4.36339 -0.369625 9.91382 0.00119886 -0.797461 15.3761 10.4497 16.2343 32.985 -18.268 -4.63116 13.4514 0.668897 17.3932 -9.68091 -29.7513 
-16.3504 101.538 61.3123 -0.292576 8.68797 -170.581 9.52985 -10.5607 3.14638 -7.35 17.6108 -9.32418 -1.35069 4.67534 -0.0798299 11.2359 6.5886 -3.82426 -0.165973 5.28284 0.409398 2.31943 3.40767 -0.131529 -0.278819 4.05829 -6.16856 1.05604e-016 0 -0 -89.1213 -21.9792 -14.5687 -18.1234 15.5052 -19.7966 0.368473 9.90896 -0.00117926 13.8473 -3.28731 -19.2095 55.4877 -61.9262 -9.33041 8.37031 12.076 4.52073 -0.369625 9.91382 0.00119886 1.38567 13.5642 11.9426 18.4458 36.5214 -23.6516 -4.92159 18.6106 0.923712 20.7967 -6.13388 -32.3995 
-16.1429 101.487 59.0716 0.302073 9.12108 -170.424 10.5993 -9.54432 2.74489 -7.34177 19.0423 -9.19425 -1.60282 3.04665 -0.0922532 10.3861 6.3461 -3.38988 -0.0055952 5.1593 0.48244 2.89958 4.0501 -0.157713 -0.429197 3.21037 -6.46894 4.96962e-017 -9.93923e-017 -0 -89.6283 -22.4381 -14.5161 -17.4637 15.2395 -18.6849 0.368473 9.90896 -0.00117926 13.6661 -3.32797 -19.5279 57.9978 -61.0165 -7.09645 8.87701 12.1529 4.99361 -0.369625 9.91382 0.00119886 2.90016 11.3482 11.27 19.8245 40.8502 -26.0679 -4.51287 23.1056 0.999692 23.4514 -0.867858 -33.3197 
-15.9623 101.491 56.9209 0.709838 9.4416 -170.268 11.4824 -8.34114 2.08647 -7.47475 19.8503 -8.90669 -1.82085 1.48642 -0.114316 9.86918 6.29259 -3.10942 0.218306 5.03859 0.491949 3.18838 4.70747 -0.174632 -0.438543 2.2114 -6.74292 -9.93923e-017 -9.93923e-017 -1.59028e-015 -90.0153 -22.9684 -14.5315 -16.883 14.9832 -17.544 0.368473 9.90896 -0.00117926 13.5047 -3.31933 -19.5987 60.7489 -59.9112 -4.70963 9.46469 12.2472 5.58125 -0.369625 9.91382 0.00119886 3.86106 8.82493 9.66659 20.8444 45.5265 -26.9053 -3.83261 26.3954 0.981118 24.4924 4.0228 -32.5487 
-15.8071 101.587 54.8466 0.874741 9.62111 -170.148 12.0967 -6.90068 2.0307 -7.46654 19.9208 -9.09808 -2.21732 0.44163 -0.126794 10.1278 5.45099 -3.46331 0.447227 4.99078 0.436447 3.22692 5.26802 -0.178435 -0.16584 1.16466 -6.8295 7.45443e-017 0 -1.59028e-015 -90.1736 -23.5254 -14.5475 -16.609 14.7712 -16.401 0.368473 9.90896 -0.00117926 13.4368 -3.25704 -19.3549 63.4495 -58.6087 -2.21237 10.1095 12.3543 6.10868 -0.369625 9.91382 0.00119886 4.31594 6.0987 7.54421 21.4221 50.1851 -25.9041 -3.40217 27.5745 0.911234 22.2305 6.2002 -28.7054 
-15.6794 101.749 52.8252 0.815177 9.75976 -170.136 12.4338 -5.24794 2.1681 -7.41957 19.5475 -9.4173 -2.53824 -0.412866 -0.140686 10.3973 4.62472 -3.82861 0.655473 4.94874 0.338187 3.00473 5.85846 -0.167241 0.179114 0.113391 -6.74823 4.96962e-017 1.98785e-016 -0 -90.198 -24.2228 -14.5876 -16.496 14.5768 -15.2242 0.368473 9.90896 -0.00117926 13.3126 -3.11979 -18.7707 66.34 -57.2039 0.413716 10.6999 12.4602 6.61831 -0.369625 9.91382 0.00119886 4.25069 3.34516 5.62144 21.4605 54.4501 -23.8253 -2.96889 26.9905 0.781179 18.7912 6.93393 -24.0752 
-15.577 101.986 50.825 0.480472 9.97602 -170.34 12.4344 -3.3133 2.49003 -7.32452 18.9436 -9.86263 -2.50155 -1.2355 -0.162136 9.79686 4.38228 -3.55115 0.758053 4.85103 0.222243 2.45995 6.62578 -0.135585 0.417553 -0.90277 -6.43065 -4.47266e-016 0 3.18055e-015 -90.1442 -25.1877 -14.7204 -16.4593 14.3729 -13.9084 0.368473 9.90896 -0.00117926 13.0361 -2.86753 -17.7303 69.6618 -55.8096 3.27559 11.0951 12.5466 7.07292 -0.369625 9.91382 0.00119886 3.9246 0.866422 4.84282 21.6737 57.7 -21.7583 -2.38125 24.278 0.581047 16.4247 6.49009 -21.1707 
-15.5125 102.232 48.8579 0.0235498 10.1863 -170.675 12.2021 -1.32714 2.6624 -7.25513 18.2409 -10.0255 -2.40625 -2.07941 -0.186557 9.22371 4.44671 -3.2099 0.874047 4.75063 0.078709 1.78672 7.39736 -0.0902495 0.608621 -1.77113 -5.97527 -1.98785e-016 0 -0 -90.0246 -26.3345 -14.7515 -16.5365 14.1924 -12.7035 0.368473 9.90896 -0.00117926 12.497 -2.54285 -16.4385 73.243 -54.3556 6.1771 11.3617 12.6228 7.53577 -0.369625 9.91382 0.00119886 3.38546 -1.47074 4.84284 22.0176 59.9686 -20.0626 -1.92635 20.6699 0.401136 14.235 5.20273 -18.6571 
-15.5059 102.425 46.9315 -0.431246 10.3645 -171.103 11.8226 0.480485 2.10466 -7.24116 17.7064 -9.15764 -2.51445 -3.18586 -0.212737 9.74819 4.91012 -3.38908 1.10501 4.67999 -0.0991219 1.16888 8.0867 -0.0339051 0.772914 -2.35942 -5.44032 2.48481e-016 0 -0 -89.8611 -27.6221 -14.4951 -16.7658 14.0656 -11.8038 0.368473 9.90896 -0.00117926 11.486 -2.16276 -15.0313 77.1108 -52.8336 9.00516 11.4986 12.6882 8.05418 -0.369625 9.91382 0.00119886 2.67963 -3.70019 5.77962 23.3326 61.0257 -20.2876 -1.94514 17.4421 0.33932 11.7694 3.58749 -15.8753 
-15.5329 102.568 45.0265 -0.855771 10.4556 -171.592 11.4975 2.1864 1.54904 -7.30518 17.1302 -8.30251 -2.65487 -4.14897 -0.236823 9.94588 5.23615 -3.41882 1.41978 4.63925 -0.295877 0.577912 8.58237 0.0264077 0.799552 -2.68084 -4.87552 -4.96962e-017 3.97569e-016 1.59028e-015 -89.6045 -29.0567 -13.9578 -17.0851 13.9969 -11.2653 0.368473 9.90896 -0.00117926 10.219 -1.7732 -13.598 80.9983 -51.2318 11.6946 11.5662 12.7523 8.63927 -0.369625 9.91382 0.00119886 1.96567 -5.85013 7.0875 24.6908 61.1935 -21.003 -1.99067 14.103 0.298273 9.42077 1.59228 -13.2793 
-15.5763 102.647 43.1233 -1.17029 10.3731 -172.124 11.4455 3.84241 1.83852 -7.58941 16.2493 -8.68876 -2.75376 -4.33167 -0.249684 7.8327 4.46631 -2.42093 1.83782 4.65614 -0.505848 0.0470759 8.69492 0.0839844 0.528596 -2.66486 -4.33002 -3.47873e-016 0 -3.18055e-015 -89.203 -30.7332 -13.0097 -17.4371 14.0152 -11.337 0.368473 9.90896 -0.00117926 8.78703 -1.42988 -12.2716 84.7648 -49.5425 14.1847 11.5902 12.8151 9.29154 -0.369625 9.91382 0.00119886 1.3192 -7.98736 8.17991 24.927 60.7748 -20.9094 -1.64227 10.4071 0.200128 7.3671 -0.8393 -11.2138 
-15.6353 102.656 41.2294 -1.41879 10.185 -172.626 11.4035 5.2829 2.06281 -7.91115 15.5452 -8.97314 -2.77726 -4.66889 -0.265403 6.1711 3.9565 -1.60451 2.30993 4.6803 -0.706843 -0.420906 8.57185 0.134479 0.108247 -2.42951 -3.86727 4.47266e-016 0 -0 -88.631 -32.3352 -11.8401 -17.8372 14.0702 -11.6363 0.368473 9.90896 -0.00117926 7.39422 -1.13337 -11.0528 88.1244 -47.7858 16.4082 11.6706 12.9031 10.0906 -0.369625 9.91382 0.00119886 0.67331 -10.0639 9.27629 24.6813 59.6182 -20.4631 -1.22821 6.89094 0.106554 5.52916 -3.08565 -9.29519 
-15.7017 102.573 39.3471 -1.61658 9.90716 -172.994 11.2314 6.26289 1.30498 -8.05909 15.5668 -7.76218 -2.5781 -6.23887 -0.299204 8.12615 5.46718 -2.34605 2.81931 4.66652 -0.883337 -0.833801 8.2351 0.170996 -0.328664 -1.98126 -3.58125 3.97569e-016 0 -0 -87.8293 -33.4851 -10.5603 -18.3286 14.1202 -11.8465 0.368473 9.90896 -0.00117926 6.33014 -0.909708 -9.98239 90.6488 -45.9826 18.2095 11.9547 13.0486 11.1587 -0.369625 9.91382 0.00119886 -0.030089 -12.1176 10.555 24.5692 57.6099 -20.1004 -0.974939 4.03095 0.0585792 3.75834 -4.26459 -7.03218 
-15.7809 102.427 37.4726 -1.75879 9.61345 -173.308 11.0613 7.07973 0.408929 -8.10593 15.8168 -6.46965 -2.42979 -7.97457 -0.33984 10.3532 6.84211 -3.25282 3.2857 4.62728 -1.00942 -1.12922 7.87194 0.19483 -0.868679 -1.58726 -3.42938 -2.98177e-016 -3.97569e-016 -2.38542e-015 -87.0423 -34.4439 -9.34378 -18.7674 14.164 -12.021 0.368473 9.90896 -0.00117926 5.43734 -0.738564 -9.07332 92.7092 -44.1434 19.8618 12.3149 13.2255 12.3713 -0.369625 9.91382 0.00119886 -0.735856 -13.957 11.5483 23.7759 54.9219 -18.8836 -0.719075 1.76142 0.0309254 2.23573 -5.19503 -5.04402 
-15.8802 102.234 35.6029 -1.84119 9.40709 -173.613 10.9152 7.97653 0.00204492 -7.99349 15.9678 -6.30412 -2.66018 -9.02666 -0.381937 9.73516 5.95648 -3.11966 3.60854 4.55316 -1.04419 -1.23029 7.731 0.204236 -1.57516 -1.57 -3.40642 4.96962e-017 7.95139e-016 1.59028e-015 -86.5341 -35.3741 -8.45666 -19.0075 14.1873 -12.1165 0.368473 9.90896 -0.00117926 4.6477 -0.610063 -8.36821 94.5019 -42.255 21.5772 12.6741 13.4236 13.6667 -0.369625 9.91382 0.00119886 -1.51247 -15.3961 11.6985 21.8354 51.6001 -15.8538 -0.338014 0.30351 0.0136446 1.23776 -6.73659 -4.03689 
-15.9861 102.008 33.7385 -1.87101 9.21543 -173.901 10.8347 8.8767 -0.166285 -7.85121 16.1138 -6.50663 -2.94937 -9.82035 -0.420743 8.36997 4.50155 -2.71067 3.83289 4.46467 -1.01715 -1.19032 7.65002 0.201703 -2.37144 -1.77039 -3.49254 -9.93923e-016 7.95139e-016 -1.59028e-015 -86.2041 -36.2315 -7.76258 -19.0997 14.1873 -12.1061 0.368473 9.90896 -0.00117926 3.97526 -0.516196 -7.8198 95.981 -40.3619 23.2678 13.0352 13.6328 14.9776 -0.369625 9.91382 0.00119886 -2.31499 -16.5303 11.3663 19.6923 47.5962 -12.5904 0.0492463 -0.726983 0.00602553 0.503824 -7.95006 -3.2994 
-16.0837 101.764 31.8906 -1.83296 8.97115 -174.191 10.918 9.75673 -0.0730098 -7.82181 16.2286 -6.72906 -3.06775 -10.4933 -0.450009 7.28739 3.59471 -2.34233 3.95653 4.38857 -0.931293 -0.995427 7.49707 0.184401 -3.23256 -2.14078 -3.70208 8.94531e-016 0 7.95139e-016 -86.0421 -37.0277 -7.19534 -19.0343 14.1541 -11.9438 0.368473 9.90896 -0.00117926 3.38352 -0.445502 -7.40204 97.1771 -38.5059 24.9158 13.3773 13.8443 16.212 -0.369625 9.91382 0.00119886 -3.04161 -17.4108 10.7512 17.4811 42.9976 -9.76726 0.370967 -1.73803 0.00599754 -0.192261 -7.88752 -2.14738 
-16.1845 101.514 30.0246 -1.79474 8.76085 -174.444 11.0287 10.699 0.0887476 -7.82209 16.3307 -6.94274 -3.07249 -11.0588 -0.469065 6.56896 2.8325 -2.14462 4.02111 4.29664 -0.825202 -0.769642 7.42984 0.166465 -4.08101 -2.66839 -3.92864 -1.3418e-015 3.97569e-016 -0 -86.0132 -37.7501 -6.79673 -18.8443 14.0935 -11.644 0.368473 9.90896 -0.00117926 2.94899 -0.396768 -7.09424 98.0937 -36.6817 26.541 13.7059 14.0543 17.38 -0.369625 9.91382 0.00119886 -3.75441 -17.9357 9.82251 15.4648 37.8924 -7.67493 0.602257 -2.43715 0.00833556 -0.694246 -7.42459 -1.20301 
